<svg width="24" height="24" viewBox="0 0 24 24" fill="none" xmlns="http://www.w3.org/2000/svg">
<path d="M17.0102 12.73C17.6011 12.73 18.0802 12.251 18.0802 11.66C18.0802 11.0691 17.6011 10.5901 17.0102 10.5901C16.4192 10.5901 15.9402 11.0691 15.9402 11.66C15.9402 12.251 16.4192 12.73 17.0102 12.73Z" stroke="#008000" style="stroke:#008000;stroke:color(display-p3 0.0000 0.5020 0.0000);stroke-opacity:1;" stroke-width="1.5" stroke-linecap="round" stroke-linejoin="round"/>
<path d="M20.0002 6V7.78998C19.7502 7.75998 19.4602 7.73999 19.1502 7.73999H14.8702C12.7302 7.73999 12.0202 8.45003 12.0202 10.59V15.7H6.00024C2.80024 15.7 2.00024 14.9 2.00024 11.7V6C2.00024 2.8 2.80024 2 6.00024 2H16.0002C19.2002 2 20.0002 2.8 20.0002 6Z" stroke="#008000" style="stroke:#008000;stroke:color(display-p3 0.0000 0.5020 0.0000);stroke-opacity:1;" stroke-width="1.5" stroke-linecap="round" stroke-linejoin="round"/>
<path d="M9.00024 15.7V19.9999" stroke="#008000" style="stroke:#008000;stroke:color(display-p3 0.0000 0.5020 0.0000);stroke-opacity:1;" stroke-width="1.5" stroke-linecap="round" stroke-linejoin="round"/>
<path d="M2.00024 11.9H12.0002" stroke="#008000" style="stroke:#008000;stroke:color(display-p3 0.0000 0.5020 0.0000);stroke-opacity:1;" stroke-width="1.5" stroke-linecap="round" stroke-linejoin="round"/>
<path d="M5.9502 20H12.0002" stroke="#008000" style="stroke:#008000;stroke:color(display-p3 0.0000 0.5020 0.0000);stroke-opacity:1;" stroke-width="1.5" stroke-linecap="round" stroke-linejoin="round"/>
<path d="M17.0102 12.73C17.6011 12.73 18.0802 12.251 18.0802 11.66C18.0802 11.0691 17.6011 10.5901 17.0102 10.5901C16.4192 10.5901 15.9402 11.0691 15.9402 11.66C15.9402 12.251 16.4192 12.73 17.0102 12.73Z" stroke="#008000" style="stroke:#008000;stroke:color(display-p3 0.0000 0.5020 0.0000);stroke-opacity:1;" stroke-width="1.5" stroke-miterlimit="10" stroke-linecap="round" stroke-linejoin="round"/>
<path d="M20.0003 7.78998C19.7503 7.75998 19.4603 7.73999 19.1503 7.73999H14.8703C12.7303 7.73999 12.0203 8.45003 12.0203 10.59V19.15C12.0203 21.29 12.7303 22 14.8703 22H19.1503C21.2903 22 22.0003 21.29 22.0003 19.15V10.59C22.0003 8.76003 21.4803 7.97998 20.0003 7.78998ZM17.0103 10.59C17.6003 10.59 18.0803 11.07 18.0803 11.66C18.0803 12.25 17.6003 12.73 17.0103 12.73C16.4203 12.73 15.9403 12.25 15.9403 11.66C15.9403 11.07 16.4203 10.59 17.0103 10.59ZM17.0103 19.15C15.8303 19.15 14.8703 18.19 14.8703 17.01C14.8703 16.52 15.0403 16.06 15.3203 15.7C15.7103 15.2 16.3203 14.87 17.0103 14.87C17.5503 14.87 18.0403 15.07 18.4103 15.39C18.8603 15.79 19.1503 16.37 19.1503 17.01C19.1503 18.19 18.1903 19.15 17.0103 19.15Z" stroke="#008000" style="stroke:#008000;stroke:color(display-p3 0.0000 0.5020 0.0000);stroke-opacity:1;" stroke-width="1.5" stroke-miterlimit="10" stroke-linecap="round" stroke-linejoin="round"/>
<path d="M19.1504 17.01C19.1504 18.19 18.1904 19.15 17.0104 19.15C15.8304 19.15 14.8704 18.19 14.8704 17.01C14.8704 16.52 15.0404 16.06 15.3204 15.7C15.7104 15.2 16.3204 14.87 17.0104 14.87C17.5504 14.87 18.0404 15.07 18.4104 15.39C18.8604 15.79 19.1504 16.37 19.1504 17.01Z" stroke="#008000" style="stroke:#008000;stroke:color(display-p3 0.0000 0.5020 0.0000);stroke-opacity:1;" stroke-width="1.5" stroke-miterlimit="10" stroke-linecap="round" stroke-linejoin="round"/>
<path d="M17.0102 12.73C17.6011 12.73 18.0802 12.251 18.0802 11.66C18.0802 11.0691 17.6011 10.5901 17.0102 10.5901C16.4192 10.5901 15.9402 11.0691 15.9402 11.66C15.9402 12.251 16.4192 12.73 17.0102 12.73Z" stroke="#008000" style="stroke:#008000;stroke:color(display-p3 0.0000 0.5020 0.0000);stroke-opacity:1;" stroke-width="1.5" stroke-miterlimit="10" stroke-linecap="round" stroke-linejoin="round"/>
</svg>
