<svg width="24" height="24" viewBox="0 0 24 24" fill="none" xmlns="http://www.w3.org/2000/svg">
  <path d="M12.8797 20.81H5.63967C2.09967 20.81 1.81966 19.17 1.66966 17.23L1.09967 9.28999C0.969666 7.58999 1.91967 6.11998 3.62967 5.92998C4.03967 5.88998 4.45967 5.85999 4.86967 5.82999H12.8797" stroke="#F59E0B" stroke-width="1.5" stroke-linecap="round" stroke-linejoin="round"/>
  <path d="M16.9998 6.22V20.76" stroke="#F59E0B" stroke-width="1.5" stroke-linecap="round" stroke-linejoin="round"/>
  <path d="M13.6797 14H12.8297C11.6497 14 10.7197 13.05 10.7197 11.9C10.7197 10.75 11.6597 9.79998 12.8297 9.79998H13.6797" stroke="#F59E0B" stroke-width="1.5" stroke-linecap="round" stroke-linejoin="round"/>
  <path d="M19.9997 14H19.0797C17.8997 14 16.9697 13.05 16.9697 11.9C16.9697 10.75 17.9097 9.79998 19.0797 9.79998H19.9997" stroke="#F59E0B" stroke-width="1.5" stroke-linecap="round" stroke-linejoin="round"/>
  <path d="M17 8.5C17 5.78 15.85 4 12 4H8.5C8.33 4 8.15 4 7.98 4.01C7.68 4.04 7.37 4.1 7.08 4.19C5.2 4.86 4 6.71 4 9V12" stroke="#F59E0B" stroke-width="1.5" stroke-linecap="round" stroke-linejoin="round"/>
</svg>
