<svg width="71" height="71" viewBox="0 0 71 71" fill="none" xmlns="http://www.w3.org/2000/svg">
<path d="M26.6253 65.0834H44.3753C59.167 65.0834 65.0837 59.1668 65.0837 44.3751V26.6251C65.0837 11.8334 59.167 5.91675 44.3753 5.91675H26.6253C11.8337 5.91675 5.91699 11.8334 5.91699 26.6251V44.3751C5.91699 59.1668 11.8337 65.0834 26.6253 65.0834Z" stroke="#E52626" style="stroke:#E52626;stroke:color(display-p3 0.8999 0.1492 0.1492);stroke-opacity:1;" stroke-linecap="round" stroke-linejoin="round"/>
<path d="M26.9209 35.4999V31.1216C26.9209 25.4712 30.9146 23.1932 35.7959 26.0037L39.5826 28.1928L43.3692 30.382C48.2505 33.1924 48.2505 37.8074 43.3692 40.6178L39.5826 42.807L35.7959 44.9962C30.9146 47.8066 26.9209 45.4991 26.9209 39.8782V35.4999Z" stroke="#E52626" style="stroke:#E52626;stroke:color(display-p3 0.8999 0.1492 0.1492);stroke-opacity:1;" stroke-miterlimit="10" stroke-linecap="round" stroke-linejoin="round"/>
</svg>
