<svg width="25" height="24" viewBox="0 0 25 24" fill="none" xmlns="http://www.w3.org/2000/svg">
<path d="M10.9316 2.23006L5.94156 4.11006C4.79156 4.54006 3.85156 5.90006 3.85156 7.12006V14.5501C3.85156 15.7301 4.63156 17.2801 5.58156 17.9901L9.88156 21.2001C11.2916 22.2601 13.6116 22.2601 15.0216 21.2001L19.3216 17.9901C20.2716 17.2801 21.0516 15.7301 21.0516 14.5501V7.12006C21.0516 5.89006 20.1116 4.53006 18.9616 4.10006L13.9716 2.23006C13.1216 1.92006 11.7616 1.92006 10.9316 2.23006Z" stroke="#E3A405" style="stroke:#E3A405;stroke:color(display-p3 0.8902 0.6431 0.0196);stroke-opacity:1;" stroke-width="1.5" stroke-linecap="round" stroke-linejoin="round"/>
<path d="M12.4417 12.5C13.5462 12.5 14.4417 11.6046 14.4417 10.5C14.4417 9.39543 13.5462 8.5 12.4417 8.5C11.3371 8.5 10.4417 9.39543 10.4417 10.5C10.4417 11.6046 11.3371 12.5 12.4417 12.5Z" stroke="#E3A405" style="stroke:#E3A405;stroke:color(display-p3 0.8902 0.6431 0.0196);stroke-opacity:1;" stroke-width="1.5" stroke-miterlimit="10" stroke-linecap="round" stroke-linejoin="round"/>
<path d="M12.4417 12.5V15.5" stroke="#E3A405" style="stroke:#E3A405;stroke:color(display-p3 0.8902 0.6431 0.0196);stroke-opacity:1;" stroke-width="1.5" stroke-miterlimit="10" stroke-linecap="round" stroke-linejoin="round"/>
</svg>
