<svg width="25" height="24" viewBox="0 0 25 24" fill="none" xmlns="http://www.w3.org/2000/svg">
<path d="M10.9899 2.23006L5.99991 4.11006C4.84991 4.54006 3.90991 5.90006 3.90991 7.12006V14.5501C3.90991 15.7301 4.68991 17.2801 5.63991 17.9901L9.93991 21.2001C11.3499 22.2601 13.6699 22.2601 15.0799 21.2001L19.3799 17.9901C20.3299 17.2801 21.1099 15.7301 21.1099 14.5501V7.12006C21.1099 5.89006 20.1699 4.53006 19.0199 4.10006L14.0299 2.23006C13.1799 1.92006 11.8199 1.92006 10.9899 2.23006Z" stroke="#004AAD" style="stroke:#004AAD;stroke:color(display-p3 0.0000 0.2902 0.6784);stroke-opacity:1;" stroke-width="1.5" stroke-linecap="round" stroke-linejoin="round"/>
<path d="M12.5 12.5C13.6046 12.5 14.5 11.6046 14.5 10.5C14.5 9.39543 13.6046 8.5 12.5 8.5C11.3954 8.5 10.5 9.39543 10.5 10.5C10.5 11.6046 11.3954 12.5 12.5 12.5Z" stroke="#004AAD" style="stroke:#004AAD;stroke:color(display-p3 0.0000 0.2902 0.6784);stroke-opacity:1;" stroke-width="1.5" stroke-miterlimit="10" stroke-linecap="round" stroke-linejoin="round"/>
<path d="M12.5 12.5V15.5" stroke="#004AAD" style="stroke:#004AAD;stroke:color(display-p3 0.0000 0.2902 0.6784);stroke-opacity:1;" stroke-width="1.5" stroke-miterlimit="10" stroke-linecap="round" stroke-linejoin="round"/>
</svg>
