<svg width="25" height="25" viewBox="0 0 25 25" fill="none" xmlns="http://www.w3.org/2000/svg">
<path d="M14.9824 16.498H9.98242" stroke="#439F6E" style="stroke:#439F6E;stroke:color(display-p3 0.2627 0.6235 0.4314);stroke-opacity:1;" stroke-width="1.5" stroke-miterlimit="10" stroke-linecap="round" stroke-linejoin="round"/>
<path d="M13.3816 3.01814L13.3516 3.08814L10.4516 9.81814H7.60164C6.92164 9.81814 6.27164 9.95814 5.68164 10.2081L7.43164 6.02814L7.47164 5.92814L7.54164 5.76814C7.56164 5.70814 7.58164 5.64814 7.61164 5.59814C8.92164 2.56814 10.4016 1.87814 13.3816 3.01814Z" stroke="#439F6E" style="stroke:#439F6E;stroke:color(display-p3 0.2627 0.6235 0.4314);stroke-opacity:1;" stroke-width="1.5" stroke-linecap="round" stroke-linejoin="round"/>
<path d="M18.7712 10.0182C18.3212 9.87819 17.8412 9.81819 17.3612 9.81819H10.4512L13.3512 3.08819L13.3812 3.01819C13.5312 3.06819 13.6712 3.13819 13.8212 3.19819L16.0312 4.12819C17.2612 4.63819 18.1212 5.16819 18.6412 5.80819C18.7412 5.92819 18.8212 6.03819 18.8912 6.16819C18.9812 6.30819 19.0512 6.44819 19.0912 6.59819C19.1312 6.68819 19.1612 6.77819 19.1812 6.85819C19.4512 7.69819 19.2912 8.72819 18.7712 10.0182Z" stroke="#439F6E" style="stroke:#439F6E;stroke:color(display-p3 0.2627 0.6235 0.4314);stroke-opacity:1;" stroke-width="1.5" stroke-linecap="round" stroke-linejoin="round"/>
<path d="M22.2424 14.6984V16.6484C22.2424 16.8484 22.2324 17.0484 22.2224 17.2484C22.0324 20.7384 20.0824 22.4984 16.3824 22.4984H8.58242C8.34242 22.4984 8.10242 22.4784 7.87242 22.4484C4.69242 22.2384 2.99242 20.5384 2.78242 17.3584C2.75242 17.1284 2.73242 16.8884 2.73242 16.6484V14.6984C2.73242 12.6884 3.95242 10.9584 5.69242 10.2084C6.29242 9.95836 6.93242 9.81836 7.61242 9.81836H17.3724C17.8624 9.81836 18.3424 9.88836 18.7824 10.0184C20.7724 10.6284 22.2424 12.4884 22.2424 14.6984Z" stroke="#439F6E" style="stroke:#439F6E;stroke:color(display-p3 0.2627 0.6235 0.4314);stroke-opacity:1;" stroke-width="1.5" stroke-linecap="round" stroke-linejoin="round"/>
<path d="M7.4307 6.02808L5.6807 10.2081C3.9407 10.9581 2.7207 12.6881 2.7207 14.6981V11.7681C2.7207 8.92808 4.7407 6.55808 7.4307 6.02808Z" stroke="#439F6E" style="stroke:#439F6E;stroke:color(display-p3 0.2627 0.6235 0.4314);stroke-opacity:1;" stroke-width="1.5" stroke-linecap="round" stroke-linejoin="round"/>
<path d="M22.2393 11.7677V14.6977C22.2393 12.4977 20.7793 10.6277 18.7793 10.0277C19.2993 8.72766 19.4493 7.70766 19.1993 6.85766C19.1793 6.76766 19.1493 6.67766 19.1093 6.59766C20.9693 7.55766 22.2393 9.52766 22.2393 11.7677Z" stroke="#439F6E" style="stroke:#439F6E;stroke:color(display-p3 0.2627 0.6235 0.4314);stroke-opacity:1;" stroke-width="1.5" stroke-linecap="round" stroke-linejoin="round"/>
</svg>
